<?xml version="1.0" encoding="UTF-8"?>
<!DOCTYPE svg PUBLIC "-//W3C//DTD SVG 1.1//EN" "http://www.w3.org/Graphics/SVG/1.1/DTD/svg11.dtd">
<svg xmlns="http://www.w3.org/2000/svg" version="1.1" width="392px" height="230px" style="shape-rendering:geometricPrecision; text-rendering:geometricPrecision; image-rendering:optimizeQuality; fill-rule:evenodd; clip-rule:evenodd" xmlns:xlink="http://www.w3.org/1999/xlink">
<g><path style="opacity:0.999" fill="#f4f4f4" d="M 144.5,15.5 C 144.333,47.5017 144.5,79.5017 145,111.5C 145.949,113.093 147.115,114.426 148.5,115.5C 148.833,116.833 149.167,118.167 149.5,119.5C 150.542,120.791 151.708,120.791 153,119.5C 155.43,115.319 157.264,110.986 158.5,106.5C 160.167,105.5 161.5,104.167 162.5,102.5C 164.974,101.895 167.307,100.895 169.5,99.5C 170.833,100.5 172.167,101.5 173.5,102.5C 174.833,104.167 176.167,105.833 177.5,107.5C 177.5,121.5 177.5,135.5 177.5,149.5C 167.081,149.07 156.748,149.07 146.5,149.5C 144.539,156.087 143.872,163.087 144.5,170.5C 165.546,170.811 186.546,170.477 207.5,169.5C 213.271,168.474 218.938,166.974 224.5,165C 226.544,164.502 227.878,163.335 228.5,161.5C 232.02,160.647 234.687,158.647 236.5,155.5C 238.167,154.167 239.833,152.833 241.5,151.5C 242.043,151.44 242.376,151.107 242.5,150.5C 240.257,149.526 237.924,149.192 235.5,149.5C 235.5,133.833 235.5,118.167 235.5,102.5C 242.022,102.823 248.355,102.49 254.5,101.5C 254.333,72.4981 254.5,43.4981 255,14.5C 256.167,13.3333 257.333,12.1667 258.5,11C 272.167,10.3333 285.833,10.3333 299.5,11C 300.373,12.045 301.373,12.8783 302.5,13.5C 303.484,42.7894 303.817,72.1227 303.5,101.5C 308.209,103.138 313.209,104.471 318.5,105.5C 319.5,105.833 320.167,106.5 320.5,107.5C 321.891,109.921 322.725,112.588 323,115.5C 323.5,123.159 323.666,130.826 323.5,138.5C 322.136,142.58 319.802,145.913 316.5,148.5C 310.748,150.032 304.748,151.032 298.5,151.5C 298.137,152.183 297.804,152.85 297.5,153.5C 295.824,154.183 295.157,155.517 295.5,157.5C 293.043,160.751 291.376,164.418 290.5,168.5C 288.75,169.659 287.75,171.326 287.5,173.5C 286.094,173.973 285.427,174.973 285.5,176.5C 284.094,176.973 283.427,177.973 283.5,179.5C 281.413,180.585 280.08,182.251 279.5,184.5C 275.833,187.5 272.5,190.833 269.5,194.5C 262.158,199.503 254.825,204.503 247.5,209.5C 244.509,209.166 242.176,210.166 240.5,212.5C 231.884,214.714 223.217,216.714 214.5,218.5C 175.832,218.667 137.165,218.5 98.5,218C 97.6667,217.167 96.8333,216.333 96,215.5C 95.8321,190.663 95.3321,165.997 94.5,141.5C 94.1667,141.5 93.8333,141.5 93.5,141.5C 93.1667,141.5 92.8333,141.5 92.5,141.5C 91.8333,141.5 91.1667,141.5 90.5,141.5C 88.631,143.635 87.9644,146.302 88.5,149.5C 82.5,149.5 76.5,149.5 70.5,149.5C 70.5,139.167 70.5,128.833 70.5,118.5C 71.2341,117.292 71.5674,115.959 71.5,114.5C 72.9063,114.027 73.573,113.027 73.5,111.5C 75.5,110.167 77.1667,108.5 78.5,106.5C 80.0269,106.573 81.0269,105.906 81.5,104.5C 85.0981,102.308 89.0981,101.308 93.5,101.5C 93.8333,101.5 94.1667,101.5 94.5,101.5C 95.1821,72.2942 95.8488,42.9609 96.5,13.5C 96.9528,12.5416 97.6195,11.7083 98.5,11C 112.167,10.3333 125.833,10.3333 139.5,11C 141.037,12.7073 142.704,14.2073 144.5,15.5 Z M 135.5,20.5 C 135.427,47.2713 135.427,74.2713 135.5,101.5C 134.833,101.5 134.167,101.5 133.5,101.5C 133.663,97.9652 132.33,96.9652 129.5,98.5C 127.613,101.577 125.446,104.577 123,107.5C 122.173,122.006 122.339,136.339 123.5,150.5C 127.604,151.006 131.604,151.006 135.5,150.5C 135.163,153.656 135.163,156.989 135.5,160.5C 134.35,165.316 134.184,170.316 135,175.5C 136.371,177.041 137.871,178.375 139.5,179.5C 162.502,179.667 185.502,179.5 208.5,179C 212.09,178.689 215.423,177.856 218.5,176.5C 225.365,175.067 231.365,172.067 236.5,167.5C 238.404,167.262 239.738,166.262 240.5,164.5C 243.5,162.167 246.167,159.5 248.5,156.5C 249.906,156.027 250.573,155.027 250.5,153.5C 251.167,153.5 251.5,153.167 251.5,152.5C 252.289,152.217 252.956,151.717 253.5,151C 258.019,150.825 262.353,150.325 266.5,149.5C 267.791,149.737 268.791,149.404 269.5,148.5C 271.027,148.573 272.027,147.906 272.5,146.5C 273.167,146.5 273.5,146.167 273.5,145.5C 275.708,144.106 277.208,142.106 278,139.5C 278.667,130.5 278.667,121.5 278,112.5C 277.8,110.68 276.966,109.347 275.5,108.5C 275.167,106.167 273.833,104.833 271.5,104.5C 270.486,103.326 269.153,102.66 267.5,102.5C 267.167,102.5 266.833,102.5 266.5,102.5C 265.791,101.596 264.791,101.263 263.5,101.5C 263.5,74.5 263.5,47.5 263.5,20.5C 273.833,20.5 284.167,20.5 294.5,20.5C 294.492,47.4703 294.492,74.4703 294.5,101.5C 290.167,101.5 285.833,101.5 281.5,101.5C 280.883,101.611 280.383,101.944 280,102.5C 279.333,118.167 279.333,133.833 280,149.5C 280.383,150.056 280.883,150.389 281.5,150.5C 283.5,150.5 285.5,150.5 287.5,150.5C 286.545,152.746 285.878,155.079 285.5,157.5C 283.992,159.181 282.992,161.181 282.5,163.5C 281.094,163.973 280.427,164.973 280.5,166.5C 272.167,178.167 262.167,188.167 250.5,196.5C 238.043,203.374 224.709,207.541 210.5,209C 177.664,209.168 144.997,209.668 112.5,210.5C 109.482,210.296 106.482,209.963 103.5,209.5C 103.5,189.833 103.5,170.167 103.5,150.5C 108.5,150.5 113.5,150.5 118.5,150.5C 119.83,143.867 120.497,136.867 120.5,129.5C 120.333,122.5 120.167,115.5 120,108.5C 118.594,105.591 116.428,103.591 113.5,102.5C 110.272,101.586 106.939,101.253 103.5,101.5C 103.502,74.8927 103.502,48.226 103.5,21.5C 114.146,20.5013 124.813,20.168 135.5,20.5 Z M 109.5,109.5 C 110.477,120.752 110.811,132.086 110.5,143.5C 109.5,143.5 108.5,143.5 107.5,143.5C 106.176,140.864 106.176,138.198 107.5,135.5C 106.964,133.855 106.297,133.522 105.5,134.5C 98.5,134.5 91.5,134.5 84.5,134.5C 83.791,133.596 82.791,133.263 81.5,133.5C 81.9396,137.179 81.273,140.512 79.5,143.5C 79.1667,143.5 78.8333,143.5 78.5,143.5C 78.2271,135.112 78.5604,126.779 79.5,118.5C 82.5612,113.123 87.2279,110.123 93.5,109.5C 98.7583,109.817 104.092,109.817 109.5,109.5 Z M 137.5,113.5 C 140.72,120.271 144.22,126.937 148,133.5C 148.739,134.574 149.739,135.241 151,135.5C 157.153,127.205 162.82,118.538 168,109.5C 168.915,110.328 169.581,111.328 170,112.5C 170.5,122.828 170.666,133.161 170.5,143.5C 169.167,143.5 167.833,143.5 166.5,143.5C 166.28,137.631 166.614,131.797 167.5,126C 167.337,122.803 166.004,121.969 163.5,123.5C 161.992,125.181 160.992,127.181 160.5,129.5C 158.75,130.659 157.75,132.326 157.5,134.5C 156.094,134.973 155.427,135.973 155.5,137.5C 153.684,139.118 152.351,141.118 151.5,143.5C 151.167,143.5 150.833,143.5 150.5,143.5C 148.166,140.166 146.333,136.499 145,132.5C 144.292,131.619 143.458,130.953 142.5,130.5C 142.242,125.914 139.909,123.248 135.5,122.5C 135.5,129.5 135.5,136.5 135.5,143.5C 134.167,143.5 132.833,143.5 131.5,143.5C 132.546,141.215 132.546,138.882 131.5,136.5C 132.33,128.01 132.83,119.343 133,110.5C 133.333,110.167 133.667,109.833 134,109.5C 134.949,111.093 136.115,112.426 137.5,113.5 Z M 218.5,110.5 C 220.222,113.92 220.889,117.586 220.5,121.5C 219.373,122.122 218.373,122.955 217.5,124C 219.417,126.409 221.417,128.576 223.5,130.5C 223.5,133.167 223.5,135.833 223.5,138.5C 222.684,140.144 221.35,141.31 219.5,142C 216.305,142.181 213.305,142.681 210.5,143.5C 204.439,143.79 198.439,143.457 192.5,142.5C 191.501,131.52 191.168,120.52 191.5,109.5C 200.54,109.252 209.54,109.585 218.5,110.5 Z M 263.5,109.5 C 265.901,110.746 267.401,112.746 268,115.5C 268.667,122.833 268.667,130.167 268,137.5C 266.564,140.442 264.397,142.442 261.5,143.5C 255.167,143.5 248.833,143.5 242.5,143.5C 242.338,141.473 242.505,139.473 243,137.5C 249.932,138.827 256.765,138.827 263.5,137.5C 264.117,137.389 264.617,137.056 265,136.5C 265.167,135.167 265.333,133.833 265.5,132.5C 265.415,130.667 264.748,129.334 263.5,128.5C 256.5,128.5 249.5,128.5 242.5,128.5C 242.338,126.473 242.505,124.473 243,122.5C 250.265,123.827 257.432,123.827 264.5,122.5C 265.156,121.378 265.489,120.045 265.5,118.5C 265.415,116.667 264.748,115.334 263.5,114.5C 256.5,114.5 249.5,114.5 242.5,114.5C 242.5,112.833 242.5,111.167 242.5,109.5C 249.5,109.5 256.5,109.5 263.5,109.5 Z M 310.5,109.5 C 312.475,110.646 313.975,112.313 315,114.5C 315.667,122.5 315.667,130.5 315,138.5C 313.035,140.55 310.868,142.217 308.5,143.5C 302.016,143.356 295.683,143.356 289.5,143.5C 289.5,141.833 289.5,140.167 289.5,138.5C 296.841,138.666 304.174,138.5 311.5,138C 312.818,134.731 312.818,131.565 311.5,128.5C 304.167,128.5 296.833,128.5 289.5,128.5C 289.338,126.473 289.505,124.473 290,122.5C 297.265,123.827 304.432,123.827 311.5,122.5C 312.156,121.378 312.489,120.045 312.5,118.5C 312.415,116.667 311.748,115.334 310.5,114.5C 303.5,114.5 296.5,114.5 289.5,114.5C 289.5,112.833 289.5,111.167 289.5,109.5C 296.5,109.5 303.5,109.5 310.5,109.5 Z"/></g>
<g><path style="opacity:0.056" fill="#1a1a1a" d="M 144.5,15.5 C 145.332,46.664 145.832,77.9973 146,109.5C 147.122,111.407 147.955,113.407 148.5,115.5C 147.115,114.426 145.949,113.093 145,111.5C 144.5,79.5017 144.333,47.5017 144.5,15.5 Z"/></g>
<g><path style="opacity:0.296" fill="#393939" d="M 144.5,15.5 C 142.704,14.2073 141.037,12.7073 139.5,11C 125.833,10.3333 112.167,10.3333 98.5,11C 97.6195,11.7083 96.9528,12.5416 96.5,13.5C 95.8826,13.6107 95.3826,13.944 95,14.5C 94.5,43.4981 94.3334,72.4981 94.5,101.5C 94.1667,101.5 93.8333,101.5 93.5,101.5C 92.8495,87.043 92.5162,72.543 92.5,58C 92.3573,43.1018 92.8573,28.2684 94,13.5C 95.1667,12.3333 96.3333,11.1667 97.5,10C 111.833,9.33333 126.167,9.33333 140.5,10C 142.464,11.451 143.797,13.2843 144.5,15.5 Z"/></g>
<g><path style="opacity:0.855" fill="#d7d7d7" d="M 96.5,13.5 C 95.8488,42.9609 95.1821,72.2942 94.5,101.5C 94.3334,72.4981 94.5,43.4981 95,14.5C 95.3826,13.944 95.8826,13.6107 96.5,13.5 Z"/></g>
<g><path style="opacity:0.319" fill="#3d3d3d" d="M 302.5,13.5 C 301.373,12.8783 300.373,12.045 299.5,11C 285.833,10.3333 272.167,10.3333 258.5,11C 257.333,12.1667 256.167,13.3333 255,14.5C 254.5,43.4981 254.333,72.4981 254.5,101.5C 254.167,101.5 253.833,101.5 253.5,101.5C 252.849,86.8762 252.516,72.2096 252.5,57.5C 252.349,42.7435 252.849,28.0769 254,13.5C 255.167,12.3333 256.333,11.1667 257.5,10C 271.833,9.33333 286.167,9.33333 300.5,10C 301.823,10.8159 302.489,11.9826 302.5,13.5 Z"/></g>
<g><path style="opacity:0.277" fill="#464646" d="M 302.5,13.5 C 303.117,13.6107 303.617,13.944 304,14.5C 304.5,43.4981 304.667,72.4981 304.5,101.5C 304.167,101.5 303.833,101.5 303.5,101.5C 303.817,72.1227 303.484,42.7894 302.5,13.5 Z"/></g>
<g><path style="opacity:0.217" fill="#333333" d="M 102.5,19.5 C 113.679,19.1721 124.679,19.5054 135.5,20.5C 124.813,20.168 114.146,20.5013 103.5,21.5C 103.502,48.226 103.502,74.8927 103.5,101.5C 102.502,74.3384 102.169,47.0051 102.5,19.5 Z"/></g>
<g><path style="opacity:0.557" fill="#767676" d="M 102.5,19.5 C 113.654,18.5052 124.988,18.1719 136.5,18.5C 136.831,46.3384 136.498,74.005 135.5,101.5C 135.427,74.2713 135.427,47.2713 135.5,20.5C 124.679,19.5054 113.679,19.1721 102.5,19.5 Z"/></g>
<g><path style="opacity:0.159" fill="#292929" d="M 262.5,19.5 C 273.346,19.1722 284.013,19.5056 294.5,20.5C 284.167,20.5 273.833,20.5 263.5,20.5C 263.5,47.5 263.5,74.5 263.5,101.5C 264.791,101.263 265.791,101.596 266.5,102.5C 265.167,102.5 263.833,102.5 262.5,102.5C 262.5,74.8333 262.5,47.1667 262.5,19.5 Z"/></g>
<g><path style="opacity:0.257" fill="#4e4e4e" d="M 262.5,19.5 C 273.321,18.5054 284.321,18.1721 295.5,18.5C 295.5,46.1667 295.5,73.8333 295.5,101.5C 295.167,101.5 294.833,101.5 294.5,101.5C 294.492,74.4703 294.492,47.4703 294.5,20.5C 284.013,19.5056 273.346,19.1722 262.5,19.5 Z"/></g>
<g><path style="opacity:0.035" fill="#131313" d="M 129.5,98.5 C 132.33,96.9652 133.663,97.9652 133.5,101.5C 133.167,101.5 132.833,101.5 132.5,101.5C 132.5,99.5 131.5,98.5 129.5,98.5 Z"/></g>
<g><path style="opacity:0.255" fill="#383838" d="M 173.5,102.5 C 172.167,101.5 170.833,100.5 169.5,99.5C 171.29,96.953 172.956,97.2863 174.5,100.5C 174.137,101.183 173.804,101.85 173.5,102.5 Z"/></g>
<g><path style="opacity:0.657" fill="#a4a4a4" d="M 14.5,101.5 C 21.8333,101.5 29.1667,101.5 36.5,101.5C 36.5,102.167 36.5,102.833 36.5,103.5C 32.9157,102.869 29.2491,102.535 25.5,102.5C 21.7614,102.514 18.428,103.18 15.5,104.5C 14.596,103.791 14.2627,102.791 14.5,101.5 Z"/></g>
<g><path style="opacity:0.655" fill="#a0a0a0" d="M 52.5,102.5 C 52.5,102.167 52.5,101.833 52.5,101.5C 59.5,101.5 66.5,101.5 73.5,101.5C 73.5,103.167 73.5,104.833 73.5,106.5C 72.8333,106.833 72.1667,107.167 71.5,107.5C 72.038,105.883 72.3713,104.216 72.5,102.5C 65.8333,102.5 59.1667,102.5 52.5,102.5 Z"/></g>
<g><path style="opacity:0.662" fill="#9d9d9d" d="M 377.5,101.5 C 377.5,115.833 377.5,130.167 377.5,144.5C 377.167,144.5 376.833,144.5 376.5,144.5C 376.5,130.5 376.5,116.5 376.5,102.5C 363.137,102.242 349.804,102.575 336.5,103.5C 337.263,102.732 338.263,102.232 339.5,102C 352.162,101.5 364.829,101.333 377.5,101.5 Z"/></g>
<g><path style="opacity:0.082" fill="#252525" d="M 73.5,101.5 C 75.8507,102.916 75.8507,104.583 73.5,106.5C 73.5,104.833 73.5,103.167 73.5,101.5 Z"/></g>
<g><path style="opacity:0.373" fill="#3f3f3f" d="M 234.5,101.5 C 234.5,117.833 234.5,134.167 234.5,150.5C 235.5,150.5 236.5,150.5 237.5,150.5C 237.5,150.833 237.5,151.167 237.5,151.5C 235.856,151.714 234.356,151.38 233,150.5C 233.245,146.078 233.245,141.745 233,137.5C 232.518,142.11 230.352,145.443 226.5,147.5C 231.627,141.003 232.96,133.669 230.5,125.5C 231.887,127.877 232.721,130.543 233,133.5C 232.988,127.191 232.822,120.857 232.5,114.5C 232.508,109.778 233.175,105.445 234.5,101.5 Z"/></g>
<g><path style="opacity:0.319" fill="#3c3c3c" d="M 281.5,101.5 C 281.5,117.833 281.5,134.167 281.5,150.5C 280.883,150.389 280.383,150.056 280,149.5C 279.333,133.833 279.333,118.167 280,102.5C 280.383,101.944 280.883,101.611 281.5,101.5 Z"/></g>
<g><path style="opacity:1" fill="#cbcbcb" d="M 303.5,101.5 C 303.833,101.5 304.167,101.5 304.5,101.5C 308.817,101.083 312.817,101.75 316.5,103.5C 317.167,104.167 317.833,104.833 318.5,105.5C 313.209,104.471 308.209,103.138 303.5,101.5 Z"/></g>
<g><path style="opacity:1" fill="#efefef" d="M 36.5,103.5 C 38.6977,108.097 40.6977,112.763 42.5,117.5C 45.5411,116.801 47.2078,114.801 47.5,111.5C 48.4097,108.008 50.0764,105.008 52.5,102.5C 59.1667,102.5 65.8333,102.5 72.5,102.5C 72.3713,104.216 72.038,105.883 71.5,107.5C 65.6577,120.187 59.4911,132.854 53,145.5C 51.6244,146.705 50.4577,148.038 49.5,149.5C 46.7131,150.477 43.7131,150.81 40.5,150.5C 38.5248,148.863 36.5248,147.196 34.5,145.5C 28.6095,131.55 22.2762,117.883 15.5,104.5C 18.428,103.18 21.7614,102.514 25.5,102.5C 29.2491,102.535 32.9157,102.869 36.5,103.5 Z M 26.5,110.5 C 27.8845,109.199 29.3845,109.199 31,110.5C 34.403,118.975 38.5697,126.975 43.5,134.5C 44.8139,133.687 45.9805,132.687 47,131.5C 50.6062,124.621 53.9395,117.621 57,110.5C 58.6155,109.199 60.1155,109.199 61.5,110.5C 56.9922,118.182 52.9922,126.182 49.5,134.5C 47.5259,136.428 46.0259,138.761 45,141.5C 44.3333,142.833 43.6667,142.833 43,141.5C 37.572,130.981 32.072,120.647 26.5,110.5 Z"/></g>
<g><path style="opacity:1" fill="#e0e0e0" d="M 222.5,103.5 C 223.211,105.03 224.211,106.363 225.5,107.5C 228.402,112.153 229.069,117.153 227.5,122.5C 227.868,124.175 228.868,125.175 230.5,125.5C 232.96,133.669 231.627,141.003 226.5,147.5C 226.158,148.338 225.492,148.672 224.5,148.5C 211.826,149.786 199.16,149.786 186.5,148.5C 184.975,146.784 183.975,144.784 183.5,142.5C 183.333,130.829 183.5,119.162 184,107.5C 185.707,105.963 187.207,104.296 188.5,102.5C 198.658,101.341 208.992,101.175 219.5,102C 220.527,102.513 221.527,103.013 222.5,103.5 Z M 218.5,110.5 C 220.222,113.92 220.889,117.586 220.5,121.5C 219.373,122.122 218.373,122.955 217.5,124C 219.417,126.409 221.417,128.576 223.5,130.5C 223.5,133.167 223.5,135.833 223.5,138.5C 222.684,140.144 221.35,141.31 219.5,142C 216.305,142.181 213.305,142.681 210.5,143.5C 204.439,143.79 198.439,143.457 192.5,142.5C 191.501,131.52 191.168,120.52 191.5,109.5C 200.54,109.252 209.54,109.585 218.5,110.5 Z"/></g>
<g><path style="opacity:0.829" fill="#c7c7c7" d="M 234.5,101.5 C 240.833,101.5 247.167,101.5 253.5,101.5C 253.833,101.5 254.167,101.5 254.5,101.5C 248.355,102.49 242.022,102.823 235.5,102.5C 235.5,118.167 235.5,133.833 235.5,149.5C 237.924,149.192 240.257,149.526 242.5,150.5C 242.376,151.107 242.043,151.44 241.5,151.5C 241.158,150.662 240.492,150.328 239.5,150.5C 238.833,150.5 238.167,150.5 237.5,150.5C 236.5,150.5 235.5,150.5 234.5,150.5C 234.5,134.167 234.5,117.833 234.5,101.5 Z"/></g>
<g><path style="opacity:0.781" fill="#bebebe" d="M 281.5,101.5 C 285.833,101.5 290.167,101.5 294.5,101.5C 294.833,101.5 295.167,101.5 295.5,101.5C 291.366,102.485 287.032,102.818 282.5,102.5C 282.5,118.167 282.5,133.833 282.5,149.5C 284.833,149.5 287.167,149.5 289.5,149.5C 289.737,150.791 289.404,151.791 288.5,152.5C 288.672,151.508 288.338,150.842 287.5,150.5C 285.5,150.5 283.5,150.5 281.5,150.5C 281.5,134.167 281.5,117.833 281.5,101.5 Z"/></g>
<g><path style="opacity:0.11" fill="#2a2a2a" d="M 316.5,103.5 C 320.055,104.054 322.388,106.054 323.5,109.5C 322.5,108.833 321.5,108.167 320.5,107.5C 320.167,106.5 319.5,105.833 318.5,105.5C 317.833,104.833 317.167,104.167 316.5,103.5 Z"/></g>
<g><path style="opacity:0.999" fill="#f3f3f3" d="M 376.5,144.5 C 375.167,146.5 373.5,148.167 371.5,149.5C 359.082,149.95 346.749,149.283 334.5,147.5C 332.823,145.46 331.156,143.46 329.5,141.5C 328.245,131.85 328.245,122.183 329.5,112.5C 330.802,109.573 332.469,106.906 334.5,104.5C 334.842,103.662 335.508,103.328 336.5,103.5C 349.804,102.575 363.137,102.242 376.5,102.5C 376.5,116.5 376.5,130.5 376.5,144.5 Z M 368.5,114.5 C 359.833,114.5 351.167,114.5 342.5,114.5C 341.177,117.938 340.51,121.771 340.5,126C 340.667,129.833 340.833,133.667 341,137.5C 341.977,138.774 342.811,138.774 343.5,137.5C 344.5,137.5 345.5,137.5 346.5,137.5C 352.653,138.653 358.986,138.82 365.5,138C 365.422,135.047 365.755,132.047 366.5,129C 365.906,128.536 365.239,128.369 364.5,128.5C 359.167,128.5 353.833,128.5 348.5,128.5C 349.301,126.958 349.634,125.292 349.5,123.5C 355.833,123.5 362.167,123.5 368.5,123.5C 369.673,130.436 369.006,137.103 366.5,143.5C 358.22,143.584 349.886,143.25 341.5,142.5C 340.5,140.833 339.167,139.5 337.5,138.5C 337.334,130.16 337.5,121.827 338,113.5C 338.833,112.667 339.667,111.833 340.5,111C 349.726,109.555 359.06,109.055 368.5,109.5C 368.5,111.167 368.5,112.833 368.5,114.5 Z"/></g>
<g><path style="opacity:0.384" fill="#484848" d="M 162.5,102.5 C 161.5,104.167 160.167,105.5 158.5,106.5C 158.833,104.167 160.167,102.833 162.5,102.5 Z"/></g>
<g><path style="opacity:1" fill="#909090" d="M 267.5,102.5 C 269.153,102.66 270.486,103.326 271.5,104.5C 271.5,104.833 271.5,105.167 271.5,105.5C 269.381,105.532 268.048,104.532 267.5,102.5 Z"/></g>
<g><path style="opacity:0.027" fill="#1f1f1f" d="M 271.5,105.5 C 271.5,105.167 271.5,104.833 271.5,104.5C 273.833,104.833 275.167,106.167 275.5,108.5C 274.167,107.5 272.833,106.5 271.5,105.5 Z"/></g>
<g><path style="opacity:0.482" fill="#4f4f4f" d="M 81.5,104.5 C 81.0269,105.906 80.0269,106.573 78.5,106.5C 78.9731,105.094 79.9731,104.427 81.5,104.5 Z"/></g>
<g><path style="opacity:0.086" fill="#212121" d="M 52.5,101.5 C 52.5,101.833 52.5,102.167 52.5,102.5C 50.0764,105.008 48.4097,108.008 47.5,111.5C 47.1667,111.5 46.8333,111.5 46.5,111.5C 47.0922,108.309 48.2589,105.309 50,102.5C 50.6708,101.748 51.5041,101.414 52.5,101.5 Z"/></g>
<g><path style="opacity:0.29" fill="#333333" d="M 78.5,106.5 C 77.1667,108.5 75.5,110.167 73.5,111.5C 74.1667,108.833 75.8333,107.167 78.5,106.5 Z"/></g>
<g><path style="opacity:0.102" fill="#2e2e2e" d="M 222.5,103.5 C 225.522,104.522 227.522,106.522 228.5,109.5C 227.5,108.833 226.5,108.167 225.5,107.5C 224.211,106.363 223.211,105.03 222.5,103.5 Z"/></g>
<g><path style="opacity:0.094" fill="#202020" d="M 263.5,109.5 C 256.5,109.5 249.5,109.5 242.5,109.5C 242.5,111.167 242.5,112.833 242.5,114.5C 241.539,112.735 241.205,110.735 241.5,108.5C 249.019,108.175 256.352,108.508 263.5,109.5 Z"/></g>
<g><path style="opacity:0.086" fill="#212121" d="M 310.5,109.5 C 303.5,109.5 296.5,109.5 289.5,109.5C 289.5,111.167 289.5,112.833 289.5,114.5C 288.539,112.735 288.205,110.735 288.5,108.5C 296.019,108.175 303.352,108.508 310.5,109.5 Z"/></g>
<g><path style="opacity:0.091" fill="#242424" d="M 368.5,114.5 C 368.5,112.833 368.5,111.167 368.5,109.5C 359.06,109.055 349.726,109.555 340.5,111C 339.667,111.833 338.833,112.667 338,113.5C 337.5,121.827 337.334,130.16 337.5,138.5C 336.507,130.35 336.174,122.017 336.5,113.5C 337.673,111.496 339.34,109.996 341.5,109C 351.161,108.5 360.828,108.334 370.5,108.5C 370.975,111.082 370.308,113.082 368.5,114.5 Z"/></g>
<g><path style="opacity:0.233" fill="#444444" d="M 129.5,98.5 C 131.5,98.5 132.5,99.5 132.5,101.5C 129.684,101.876 127.184,103.542 125,106.5C 124.517,107.448 124.351,108.448 124.5,109.5C 123.504,122.99 123.171,136.656 123.5,150.5C 122.339,136.339 122.173,122.006 123,107.5C 125.446,104.577 127.613,101.577 129.5,98.5 Z"/></g>
<g><path style="opacity:0.687" fill="#a2a2a2" d="M 124.5,109.5 C 124.5,122.833 124.5,136.167 124.5,149.5C 128.371,149.185 132.038,149.518 135.5,150.5C 131.604,151.006 127.604,151.006 123.5,150.5C 123.171,136.656 123.504,122.99 124.5,109.5 Z"/></g>
<g><path style="opacity:0.702" fill="#7a7a7a" d="M 158.5,106.5 C 157.264,110.986 155.43,115.319 153,119.5C 151.708,120.791 150.542,120.791 149.5,119.5C 150.492,119.672 151.158,119.338 151.5,118.5C 153.332,114.164 155.665,110.164 158.5,106.5 Z"/></g>
<g><path style="opacity:0.118" fill="#202020" d="M 173.5,102.5 C 177.661,104.003 179.995,107.003 180.5,111.5C 179.869,124.647 179.202,137.647 178.5,150.5C 178.829,135.99 178.496,121.657 177.5,107.5C 176.167,105.833 174.833,104.167 173.5,102.5 Z"/></g>
<g><path style="opacity:0.769" fill="#b9b9b9" d="M 117.5,107.5 C 118.496,121.657 118.829,135.99 118.5,150.5C 113.5,150.5 108.5,150.5 103.5,150.5C 103.167,150.5 102.833,150.5 102.5,150.5C 107.305,149.513 112.305,149.179 117.5,149.5C 117.5,135.5 117.5,121.5 117.5,107.5 Z"/></g>
<g><path style="opacity:0.291" fill="#343434" d="M 113.5,102.5 C 116.428,103.591 118.594,105.591 120,108.5C 120.167,115.5 120.333,122.5 120.5,129.5C 120.497,136.867 119.83,143.867 118.5,150.5C 118.829,135.99 118.496,121.657 117.5,107.5C 116.167,105.833 114.833,104.167 113.5,102.5 Z"/></g>
<g><path style="opacity:0.301" fill="#4e4e4e" d="M 131.5,109.5 C 131.5,118.5 131.5,127.5 131.5,136.5C 132.546,138.882 132.546,141.215 131.5,143.5C 130.167,132.167 130.167,120.833 131.5,109.5 Z"/></g>
<g><path style="opacity:0.027" fill="#171717" d="M 137.5,113.5 C 136.115,112.426 134.949,111.093 134,109.5C 133.667,109.833 133.333,110.167 133,110.5C 132.83,119.343 132.33,128.01 131.5,136.5C 131.5,127.5 131.5,118.5 131.5,109.5C 135.239,107.878 137.239,109.211 137.5,113.5 Z"/></g>
<g><path style="opacity:0.082" fill="#1e1e1e" d="M 182.5,109.5 C 182.172,120.679 182.505,131.679 183.5,142.5C 183.975,144.784 184.975,146.784 186.5,148.5C 183.812,147.976 182.312,146.309 182,143.5C 181.174,131.992 181.341,120.659 182.5,109.5 Z"/></g>
<g><path style="opacity:0.538" fill="#858585" d="M 188.5,102.5 C 187.207,104.296 185.707,105.963 184,107.5C 183.5,119.162 183.333,130.829 183.5,142.5C 182.505,131.679 182.172,120.679 182.5,109.5C 183.054,105.945 185.054,103.612 188.5,102.5 Z"/></g>
<g><path style="opacity:0.26" fill="#464646" d="M 109.5,109.5 C 110.829,114.792 111.496,120.458 111.5,126.5C 111.499,132.343 111.166,138.01 110.5,143.5C 110.811,132.086 110.477,120.752 109.5,109.5 Z"/></g>
<g><path style="opacity:0.486" fill="#5d5d5d" d="M 36.5,101.5 C 38.9349,105.258 41.1016,109.258 43,113.5C 43.3333,113.833 43.6667,114.167 44,114.5C 44.8518,113.429 45.6851,112.429 46.5,111.5C 46.8333,111.5 47.1667,111.5 47.5,111.5C 47.2078,114.801 45.5411,116.801 42.5,117.5C 40.6977,112.763 38.6977,108.097 36.5,103.5C 36.5,102.833 36.5,102.167 36.5,101.5 Z"/></g>
<g><path style="opacity:0.055" fill="#3a3a3a" d="M 62.5,110.5 C 62.1667,110.5 61.8333,110.5 61.5,110.5C 60.1155,109.199 58.6155,109.199 57,110.5C 53.9395,117.621 50.6062,124.621 47,131.5C 45.9805,132.687 44.8139,133.687 43.5,134.5C 38.5697,126.975 34.403,118.975 31,110.5C 29.3845,109.199 27.8845,109.199 26.5,110.5C 25.9569,110.44 25.6236,110.107 25.5,109.5C 27.8333,108.167 30.1667,108.167 32.5,109.5C 36.0609,116.954 39.8942,124.288 44,131.5C 48.0883,124.324 51.9217,116.991 55.5,109.5C 56.6667,109.167 57.8333,108.833 59,108.5C 60.6811,108.608 61.8478,109.275 62.5,110.5 Z"/></g>
<g><path style="opacity:0.027" fill="#292929" d="M 109.5,109.5 C 104.092,109.817 98.7583,109.817 93.5,109.5C 87.2279,110.123 82.5612,113.123 79.5,118.5C 79.5,117.833 79.5,117.167 79.5,116.5C 81.8221,112.681 85.1555,110.181 89.5,109C 96.3464,108.179 103.013,108.346 109.5,109.5 Z"/></g>
<g><path style="opacity:0.999" fill="#f6f6f6" d="M 105.5,114.5 C 105.819,119.363 105.486,124.03 104.5,128.5C 102.167,128.5 99.8333,128.5 97.5,128.5C 92.8333,128.5 88.1667,128.5 83.5,128.5C 83.1866,125.753 83.52,123.086 84.5,120.5C 86.2303,119.108 87.5637,117.441 88.5,115.5C 93.9753,114.511 99.642,114.178 105.5,114.5 Z"/></g>
<g><path style="opacity:0.239" fill="#282828" d="M 105.5,114.5 C 106.947,115.134 107.613,116.301 107.5,118C 106.313,120.479 106.313,122.979 107.5,125.5C 107.333,126.5 107.167,127.5 107,128.5C 106.023,129.774 105.189,129.774 104.5,128.5C 105.486,124.03 105.819,119.363 105.5,114.5 Z"/></g>
<g><path style="opacity:0.122" fill="#414141" d="M 218.5,110.5 C 219.75,110.577 220.583,111.244 221,112.5C 221.805,115.696 221.638,118.696 220.5,121.5C 220.889,117.586 220.222,113.92 218.5,110.5 Z"/></g>
<g><path style="opacity:0.38" fill="#535353" d="M 225.5,107.5 C 226.5,108.167 227.5,108.833 228.5,109.5C 229.268,110.263 229.768,111.263 230,112.5C 230.06,116.915 230.227,121.249 230.5,125.5C 228.868,125.175 227.868,124.175 227.5,122.5C 229.069,117.153 228.402,112.153 225.5,107.5 Z"/></g>
<g><path style="opacity:0.034" fill="#313131" d="M 310.5,109.5 C 313.642,109.799 315.809,111.466 317,114.5C 317.667,122.167 317.667,129.833 317,137.5C 315.359,141.323 312.526,143.323 308.5,143.5C 310.868,142.217 313.035,140.55 315,138.5C 315.667,130.5 315.667,122.5 315,114.5C 313.975,112.313 312.475,110.646 310.5,109.5 Z"/></g>
<g><path style="opacity:0.165" fill="#3b3b3b" d="M 334.5,104.5 C 332.469,106.906 330.802,109.573 329.5,112.5C 328.245,122.183 328.245,131.85 329.5,141.5C 328.778,141.082 328.278,140.416 328,139.5C 327.333,130.167 327.333,120.833 328,111.5C 329.252,109.999 330.252,108.332 331,106.5C 331.816,105.177 332.983,104.511 334.5,104.5 Z"/></g>
<g><path style="opacity:0.099" fill="#1b1b1b" d="M 263.5,114.5 C 264.748,115.334 265.415,116.667 265.5,118.5C 265.489,120.045 265.156,121.378 264.5,122.5C 264.721,119.721 264.388,117.054 263.5,114.5 Z"/></g>
<g><path style="opacity:0.036" fill="#272727" d="M 263.5,109.5 C 265.989,109.241 267.656,110.241 268.5,112.5C 269.44,120.779 269.773,129.112 269.5,137.5C 268.256,141.412 265.589,143.412 261.5,143.5C 264.397,142.442 266.564,140.442 268,137.5C 268.667,130.167 268.667,122.833 268,115.5C 267.401,112.746 265.901,110.746 263.5,109.5 Z"/></g>
<g><path style="opacity:0.469" fill="#838383" d="M 268.5,112.5 C 269.117,112.611 269.617,112.944 270,113.5C 270.823,121.677 270.656,129.677 269.5,137.5C 269.773,129.112 269.44,120.779 268.5,112.5 Z"/></g>
<g><path style="opacity:0.561" fill="#969696" d="M 275.5,110.5 C 276.268,111.263 276.768,112.263 277,113.5C 277.823,122.01 277.657,130.344 276.5,138.5C 276.721,129.134 276.387,119.801 275.5,110.5 Z"/></g>
<g><path style="opacity:0.133" fill="#2b2b2b" d="M 275.5,108.5 C 276.966,109.347 277.8,110.68 278,112.5C 278.667,121.5 278.667,130.5 278,139.5C 277.208,142.106 275.708,144.106 273.5,145.5C 274.242,143.02 275.242,140.687 276.5,138.5C 277.657,130.344 277.823,122.01 277,113.5C 276.768,112.263 276.268,111.263 275.5,110.5C 275.5,109.833 275.5,109.167 275.5,108.5 Z"/></g>
<g><path style="opacity:0.157" fill="#272727" d="M 310.5,114.5 C 311.748,115.334 312.415,116.667 312.5,118.5C 312.489,120.045 312.156,121.378 311.5,122.5C 311.721,119.721 311.388,117.054 310.5,114.5 Z"/></g>
<g><path style="opacity:0.617" fill="#a6a6a6" d="M 320.5,107.5 C 321.5,108.167 322.5,108.833 323.5,109.5C 324.739,119.314 324.739,128.981 323.5,138.5C 323.666,130.826 323.5,123.159 323,115.5C 322.725,112.588 321.891,109.921 320.5,107.5 Z"/></g>
<g><path style="opacity:0.18" fill="#363636" d="M 323.5,109.5 C 324.222,109.918 324.722,110.584 325,111.5C 325.667,120.833 325.667,130.167 325,139.5C 323.953,144.308 321.12,147.308 316.5,148.5C 319.802,145.913 322.136,142.58 323.5,138.5C 324.739,128.981 324.739,119.314 323.5,109.5 Z"/></g>
<g><path style="opacity:0.126" fill="#212121" d="M 342.5,114.5 C 341.37,121.754 341.204,129.087 342,136.5C 342.383,137.056 342.883,137.389 343.5,137.5C 342.811,138.774 341.977,138.774 341,137.5C 340.833,133.667 340.667,129.833 340.5,126C 340.51,121.771 341.177,117.938 342.5,114.5 Z"/></g>
<g><path style="opacity:0.35" fill="#626262" d="M 336.5,113.5 C 336.174,122.017 336.507,130.35 337.5,138.5C 339.167,139.5 340.5,140.833 341.5,142.5C 339.574,141.758 337.741,140.758 336,139.5C 335.176,130.657 335.343,121.99 336.5,113.5 Z"/></g>
<g><path style="opacity:0.737" fill="#797979" d="M 61.5,110.5 C 61.8333,110.5 62.1667,110.5 62.5,110.5C 58.6745,119.484 54.3412,128.151 49.5,136.5C 49.5,135.833 49.5,135.167 49.5,134.5C 52.9922,126.182 56.9922,118.182 61.5,110.5 Z"/></g>
<g><path style="opacity:0.49" fill="#414141" d="M 26.5,110.5 C 32.072,120.647 37.572,130.981 43,141.5C 43.6667,142.833 44.3333,142.833 45,141.5C 46.0259,138.761 47.5259,136.428 49.5,134.5C 49.5,135.167 49.5,135.833 49.5,136.5C 48.0666,138.519 46.7332,140.686 45.5,143C 43.6332,143.711 42.1332,143.211 41,141.5C 35.5778,131.328 30.7444,120.995 26.5,110.5 Z"/></g>
<g><path style="opacity:0.18" fill="#434343" d="M 170.5,143.5 C 170.666,133.161 170.5,122.828 170,112.5C 169.581,111.328 168.915,110.328 168,109.5C 162.82,118.538 157.153,127.205 151,135.5C 149.739,135.241 148.739,134.574 148,133.5C 144.22,126.937 140.72,120.271 137.5,113.5C 141.823,120.138 146.156,126.805 150.5,133.5C 155.56,126.585 160.06,119.252 164,111.5C 166.034,108.141 168.368,107.808 171,110.5C 171.826,121.674 171.659,132.674 170.5,143.5 Z"/></g>
<g><path style="opacity:0.125" fill="#2a2a2a" d="M 148.5,115.5 C 149.728,116.306 150.728,117.306 151.5,118.5C 151.158,119.338 150.492,119.672 149.5,119.5C 149.167,118.167 148.833,116.833 148.5,115.5 Z"/></g>
<g><path style="opacity:0.046" fill="#242424" d="M 214.5,121.5 C 214.389,122.117 214.056,122.617 213.5,123C 209.179,123.499 204.846,123.666 200.5,123.5C 200.634,125.292 200.301,126.958 199.5,128.5C 198.539,126.735 198.205,124.735 198.5,122.5C 203.895,122.733 209.228,122.4 214.5,121.5 Z"/></g>
<g><path style="opacity:0.039" fill="#1f1f1f" d="M 368.5,123.5 C 362.167,123.5 355.833,123.5 349.5,123.5C 349.634,125.292 349.301,126.958 348.5,128.5C 347.539,126.735 347.205,124.735 347.5,122.5C 354.687,122.175 361.687,122.509 368.5,123.5 Z"/></g>
<g><path style="opacity:0.071" fill="#141414" d="M 163.5,123.5 C 166.004,121.969 167.337,122.803 167.5,126C 166.614,131.797 166.28,137.631 166.5,143.5C 166.167,143.5 165.833,143.5 165.5,143.5C 166.126,136.416 165.459,129.75 163.5,123.5 Z"/></g>
<g><path style="opacity:0.208" fill="#2b2b2b" d="M 220.5,121.5 C 219.404,124.012 220.238,126.012 223,127.5C 223.483,128.448 223.649,129.448 223.5,130.5C 221.417,128.576 219.417,126.409 217.5,124C 218.373,122.955 219.373,122.122 220.5,121.5 Z"/></g>
<g><path style="opacity:0.553" fill="#575757" d="M 88.5,115.5 C 87.5637,117.441 86.2303,119.108 84.5,120.5C 83.52,123.086 83.1866,125.753 83.5,128.5C 88.1667,128.5 92.8333,128.5 97.5,128.5C 92.4327,129.824 87.266,129.824 82,128.5C 80.678,122.244 82.8447,117.911 88.5,115.5 Z"/></g>
<g><path style="opacity:0.373" fill="#4d4d4d" d="M 79.5,116.5 C 79.5,117.167 79.5,117.833 79.5,118.5C 78.5604,126.779 78.2271,135.112 78.5,143.5C 77.176,139.893 76.5093,135.893 76.5,131.5C 76.6667,127.5 76.8333,123.5 77,119.5C 77.3768,118.058 78.2101,117.058 79.5,116.5 Z"/></g>
<g><path style="opacity:0.012" fill="#242424" d="M 142.5,130.5 C 140.686,128.236 138.853,125.903 137,123.5C 136.828,130.346 136.328,137.013 135.5,143.5C 135.5,136.5 135.5,129.5 135.5,122.5C 139.909,123.248 142.242,125.914 142.5,130.5 Z"/></g>
<g><path style="opacity:0.439" fill="#777777" d="M 163.5,123.5 C 165.459,129.75 166.126,136.416 165.5,143.5C 164.673,138.015 164.173,132.348 164,126.5C 163.241,128.063 162.074,129.063 160.5,129.5C 160.992,127.181 161.992,125.181 163.5,123.5 Z"/></g>
<g><path style="opacity:0.287" fill="#444444" d="M 368.5,123.5 C 370.459,129.75 371.126,136.416 370.5,143.5C 369.167,143.5 367.833,143.5 366.5,143.5C 369.006,137.103 369.673,130.436 368.5,123.5 Z"/></g>
<g><path style="opacity:0.278" fill="#2d2d2d" d="M 377.5,101.5 C 378.385,111.996 379.052,122.663 379.5,133.5C 379.706,137.469 379.039,141.135 377.5,144.5C 377.5,130.167 377.5,115.833 377.5,101.5 Z"/></g>
<g><path style="opacity:0.09" fill="#313131" d="M 14.5,101.5 C 14.2627,102.791 14.596,103.791 15.5,104.5C 22.2762,117.883 28.6095,131.55 34.5,145.5C 26.9563,131.415 19.623,117.082 12.5,102.5C 12.9569,101.702 13.6236,101.369 14.5,101.5 Z"/></g>
<g><path style="opacity:1" fill="#e0e0e0" d="M 214.5,121.5 C 209.228,122.4 203.895,122.733 198.5,122.5C 198.205,124.735 198.539,126.735 199.5,128.5C 204.833,128.5 210.167,128.5 215.5,128.5C 217.688,131.065 218.688,134.065 218.5,137.5C 211.018,138.492 203.352,138.825 195.5,138.5C 195.5,130.5 195.5,122.5 195.5,114.5C 202.5,114.5 209.5,114.5 216.5,114.5C 216.662,116.527 216.495,118.527 216,120.5C 215.617,121.056 215.117,121.389 214.5,121.5 Z"/></g>
<g><path style="opacity:0.527" fill="#595959" d="M 263.5,128.5 C 264.748,129.334 265.415,130.667 265.5,132.5C 265.333,133.833 265.167,135.167 265,136.5C 264.617,137.056 264.117,137.389 263.5,137.5C 263.5,134.5 263.5,131.5 263.5,128.5 Z"/></g>
<g><path style="opacity:0.129" fill="#3d3d3d" d="M 215.5,128.5 C 217.017,128.511 218.184,129.177 219,130.5C 219.796,133.039 219.629,135.372 218.5,137.5C 218.688,134.065 217.688,131.065 215.5,128.5 Z"/></g>
<g><path style="opacity:0.133" fill="#2b2b2b" d="M 73.5,106.5 C 72.506,108.334 72.506,110.001 73.5,111.5C 73.573,113.027 72.9063,114.027 71.5,114.5C 71.5674,115.959 71.2341,117.292 70.5,118.5C 70.1667,118.5 69.8333,118.5 69.5,118.5C 69.19,117.262 68.69,117.262 68,118.5C 63.3333,127.833 58.6667,137.167 54,146.5C 52.871,148.141 51.371,149.141 49.5,149.5C 50.4577,148.038 51.6244,146.705 53,145.5C 59.4911,132.854 65.6577,120.187 71.5,107.5C 72.1667,107.167 72.8333,106.833 73.5,106.5 Z"/></g>
<g><path style="opacity:0.827" fill="#7a7a7a" d="M 160.5,129.5 C 160.408,131.848 159.408,133.514 157.5,134.5C 157.75,132.326 158.75,130.659 160.5,129.5 Z"/></g>
<g><path style="opacity:0.178" fill="#242424" d="M 84.5,134.5 C 82.6122,136.988 81.9455,139.988 82.5,143.5C 81.5,143.5 80.5,143.5 79.5,143.5C 81.273,140.512 81.9396,137.179 81.5,133.5C 82.791,133.263 83.791,133.596 84.5,134.5 Z"/></g>
<g><path style="opacity:0.23" fill="#2f2f2f" d="M 107.5,143.5 C 105.612,141.012 104.945,138.012 105.5,134.5C 106.297,133.522 106.964,133.855 107.5,135.5C 106.176,138.198 106.176,140.864 107.5,143.5 Z"/></g>
<g><path style="opacity:0.255" fill="#3e3e3e" d="M 157.5,134.5 C 157.573,136.027 156.906,137.027 155.5,137.5C 155.427,135.973 156.094,134.973 157.5,134.5 Z"/></g>
<g><path style="opacity:0.029" fill="#191919" d="M 311.5,128.5 C 312.818,131.565 312.818,134.731 311.5,138C 304.174,138.5 296.841,138.666 289.5,138.5C 289.5,140.167 289.5,141.833 289.5,143.5C 288.539,141.735 288.205,139.735 288.5,137.5C 295.841,137.666 303.174,137.5 310.5,137C 311.444,134.281 311.777,131.448 311.5,128.5 Z"/></g>
<g><path style="opacity:0.021" fill="#1a1a1a" d="M 364.5,128.5 C 365.239,128.369 365.906,128.536 366.5,129C 365.755,132.047 365.422,135.047 365.5,138C 358.986,138.82 352.653,138.653 346.5,137.5C 352.5,137.5 358.5,137.5 364.5,137.5C 364.5,134.5 364.5,131.5 364.5,128.5 Z"/></g>
<g><path style="opacity:0.647" fill="#484848" d="M 142.5,130.5 C 143.458,130.953 144.292,131.619 145,132.5C 146.333,136.499 148.166,140.166 150.5,143.5C 145.668,140.594 143.001,136.261 142.5,130.5 Z"/></g>
<g><path style="opacity:0.141" fill="#353535" d="M 155.5,137.5 C 155.13,140.267 153.796,142.267 151.5,143.5C 152.351,141.118 153.684,139.118 155.5,137.5 Z"/></g>
<g><path style="opacity:0.702" fill="#4f4f4f" d="M 223.5,138.5 C 223.863,140.911 222.863,142.411 220.5,143C 217.183,143.498 213.85,143.665 210.5,143.5C 213.305,142.681 216.305,142.181 219.5,142C 221.35,141.31 222.684,140.144 223.5,138.5 Z"/></g>
<g><path style="opacity:0.061" fill="#1a1a1a" d="M 90.5,141.5 C 91.1667,141.5 91.8333,141.5 92.5,141.5C 91.9115,144.61 91.2448,147.61 90.5,150.5C 90.5,147.5 90.5,144.5 90.5,141.5 Z"/></g>
<g><path style="opacity:0.296" fill="#313131" d="M 93.5,141.5 C 93.8333,141.5 94.1667,141.5 94.5,141.5C 94.3334,166.502 94.5,191.502 95,216.5C 96.045,217.373 96.8783,218.373 97.5,219.5C 95.2475,219.084 93.7475,217.751 93,215.5C 92.4001,190.726 92.5667,166.06 93.5,141.5 Z"/></g>
<g><path style="opacity:0.255" fill="#313131" d="M 329.5,141.5 C 331.156,143.46 332.823,145.46 334.5,147.5C 331.438,146.732 329.772,144.732 329.5,141.5 Z"/></g>
<g><path style="opacity:0.039" fill="#2c2c2c" d="M 34.5,145.5 C 36.5248,147.196 38.5248,148.863 40.5,150.5C 37.2876,150.288 35.2876,148.621 34.5,145.5 Z"/></g>
<g><path style="opacity:0.071" fill="#363636" d="M 376.5,144.5 C 376.833,144.5 377.167,144.5 377.5,144.5C 376.712,147.621 374.712,149.288 371.5,149.5C 373.5,148.167 375.167,146.5 376.5,144.5 Z"/></g>
<g><path style="opacity:0.055" fill="#343434" d="M 272.5,146.5 C 272.027,147.906 271.027,148.573 269.5,148.5C 269.973,147.094 270.973,146.427 272.5,146.5 Z"/></g>
<g><path style="opacity:0.707" fill="#828282" d="M 69.5,118.5 C 69.8333,118.5 70.1667,118.5 70.5,118.5C 70.5,128.833 70.5,139.167 70.5,149.5C 76.5,149.5 82.5,149.5 88.5,149.5C 87.9644,146.302 88.631,143.635 90.5,141.5C 90.5,144.5 90.5,147.5 90.5,150.5C 83.1667,150.5 75.8333,150.5 68.5,150.5C 68.1909,139.752 68.5242,129.085 69.5,118.5 Z"/></g>
<g><path style="opacity:0.709" fill="#8f8f8f" d="M 177.5,107.5 C 178.496,121.657 178.829,135.99 178.5,150.5C 168.037,150.617 157.371,150.617 146.5,150.5C 146.5,150.167 146.5,149.833 146.5,149.5C 156.748,149.07 167.081,149.07 177.5,149.5C 177.5,135.5 177.5,121.5 177.5,107.5 Z"/></g>
<g><path style="opacity:0.71" fill="#adadad" d="M 186.5,148.5 C 199.16,149.786 211.826,149.786 224.5,148.5C 223.737,149.268 222.737,149.768 221.5,150C 210.833,150.667 200.167,150.667 189.5,150C 188.263,149.768 187.263,149.268 186.5,148.5 Z"/></g>
<g><path style="opacity:0.717" fill="#898989" d="M 266.5,149.5 C 262.353,150.325 258.019,150.825 253.5,151C 252.956,151.717 252.289,152.217 251.5,152.5C 251.414,151.504 251.748,150.671 252.5,150C 257.155,149.501 261.821,149.334 266.5,149.5 Z"/></g>
<g><path style="opacity:0.706" fill="#aaaaaa" d="M 334.5,147.5 C 346.749,149.283 359.082,149.95 371.5,149.5C 361.008,150.659 350.341,150.825 339.5,150C 337.509,149.626 335.842,148.793 334.5,147.5 Z"/></g>
<g><path style="opacity:0.21" fill="#494949" d="M 102.5,150.5 C 102.833,150.5 103.167,150.5 103.5,150.5C 103.5,170.167 103.5,189.833 103.5,209.5C 106.482,209.963 109.482,210.296 112.5,210.5C 144.5,210.5 176.5,210.5 208.5,210.5C 173.337,211.498 138.004,211.832 102.5,211.5C 102.5,191.167 102.5,170.833 102.5,150.5 Z"/></g>
<g><path style="opacity:0.556" fill="#878787" d="M 135.5,150.5 C 136.492,158.316 136.826,166.316 136.5,174.5C 135.514,170.03 135.181,165.363 135.5,160.5C 135.163,156.989 135.163,153.656 135.5,150.5 Z"/></g>
<g><path style="opacity:0.035" fill="#232323" d="M 239.5,150.5 C 240.492,150.328 241.158,150.662 241.5,151.5C 239.833,152.833 238.167,154.167 236.5,155.5C 236.833,154.167 237.167,152.833 237.5,151.5C 238.492,151.672 239.158,151.338 239.5,150.5 Z"/></g>
<g><path style="opacity:0.149" fill="#353535" d="M 287.5,150.5 C 288.338,150.842 288.672,151.508 288.5,152.5C 287.737,154.368 286.737,156.035 285.5,157.5C 285.878,155.079 286.545,152.746 287.5,150.5 Z"/></g>
<g><path style="opacity:0.004" fill="#363636" d="M 250.5,153.5 C 250.573,155.027 249.906,156.027 248.5,156.5C 248.427,154.973 249.094,153.973 250.5,153.5 Z"/></g>
<g><path style="opacity:0.694" fill="#717171" d="M 297.5,153.5 C 297.34,155.153 296.674,156.486 295.5,157.5C 295.157,155.517 295.824,154.183 297.5,153.5 Z"/></g>
<g><path style="opacity:0.294" fill="#464646" d="M 236.5,155.5 C 234.687,158.647 232.02,160.647 228.5,161.5C 230.878,159.122 233.545,157.122 236.5,155.5 Z"/></g>
<g><path style="opacity:0.009" fill="#151515" d="M 135.5,160.5 C 135.181,165.363 135.514,170.03 136.5,174.5C 137.5,175.833 138.5,177.167 139.5,178.5C 139.5,178.833 139.5,179.167 139.5,179.5C 137.871,178.375 136.371,177.041 135,175.5C 134.184,170.316 134.35,165.316 135.5,160.5 Z"/></g>
<g><path style="opacity:0.31" fill="#525252" d="M 295.5,157.5 C 294.624,161.582 292.957,165.249 290.5,168.5C 291.376,164.418 293.043,160.751 295.5,157.5 Z"/></g>
<g><path style="opacity:0.906" fill="#919191" d="M 285.5,157.5 C 285.969,160.393 284.969,162.393 282.5,163.5C 282.992,161.181 283.992,159.181 285.5,157.5 Z"/></g>
<g><path style="opacity:0.486" fill="#4f4f4f" d="M 228.5,161.5 C 227.878,163.335 226.544,164.502 224.5,165C 218.938,166.974 213.271,168.474 207.5,169.5C 207.5,169.167 207.5,168.833 207.5,168.5C 214.793,167.019 221.793,164.685 228.5,161.5 Z"/></g>
<g><path style="opacity:0.047" fill="#303030" d="M 240.5,164.5 C 239.738,166.262 238.404,167.262 236.5,167.5C 237.262,165.738 238.596,164.738 240.5,164.5 Z"/></g>
<g><path style="opacity:0.224" fill="#414141" d="M 282.5,163.5 C 282.573,165.027 281.906,166.027 280.5,166.5C 280.427,164.973 281.094,163.973 282.5,163.5 Z"/></g>
<g><path style="opacity:0.016" fill="#2a2a2a" d="M 146.5,149.5 C 146.5,149.833 146.5,150.167 146.5,150.5C 145.51,156.31 145.177,162.31 145.5,168.5C 166.167,168.5 186.833,168.5 207.5,168.5C 207.5,168.833 207.5,169.167 207.5,169.5C 186.546,170.477 165.546,170.811 144.5,170.5C 143.872,163.087 144.539,156.087 146.5,149.5 Z"/></g>
<g><path style="opacity:0.294" fill="#535353" d="M 236.5,167.5 C 231.365,172.067 225.365,175.067 218.5,176.5C 224.43,173.535 230.43,170.535 236.5,167.5 Z"/></g>
<g><path style="opacity:0.2" fill="#3a3a3a" d="M 290.5,168.5 C 290.25,170.674 289.25,172.341 287.5,173.5C 287.75,171.326 288.75,169.659 290.5,168.5 Z"/></g>
<g><path style="opacity:0.145" fill="#393939" d="M 287.5,173.5 C 287.573,175.027 286.906,176.027 285.5,176.5C 285.427,174.973 286.094,173.973 287.5,173.5 Z"/></g>
<g><path style="opacity:0.02" fill="#2d2d2d" d="M 285.5,176.5 C 285.573,178.027 284.906,179.027 283.5,179.5C 283.427,177.973 284.094,176.973 285.5,176.5 Z"/></g>
<g><path style="opacity:0.334" fill="#4f4f4f" d="M 218.5,176.5 C 215.423,177.856 212.09,178.689 208.5,179C 185.502,179.5 162.502,179.667 139.5,179.5C 139.5,179.167 139.5,178.833 139.5,178.5C 161.836,178.667 184.169,178.5 206.5,178C 210.491,177.358 214.491,176.858 218.5,176.5 Z"/></g>
<g><path style="opacity:0.059" fill="#323232" d="M 283.5,179.5 C 282.92,181.749 281.587,183.415 279.5,184.5C 280.08,182.251 281.413,180.585 283.5,179.5 Z"/></g>
<g><path style="opacity:0.514" fill="#555555" d="M 280.5,166.5 C 273.5,179.5 263.5,189.5 250.5,196.5C 262.167,188.167 272.167,178.167 280.5,166.5 Z"/></g>
<g><path style="opacity:0.024" fill="#202020" d="M 279.5,184.5 C 277.167,188.833 273.833,192.167 269.5,194.5C 272.5,190.833 275.833,187.5 279.5,184.5 Z"/></g>
<g><path style="opacity:0.192" fill="#383838" d="M 269.5,194.5 C 263.269,201.056 255.935,206.056 247.5,209.5C 254.825,204.503 262.158,199.503 269.5,194.5 Z"/></g>
<g><path style="opacity:0.533" fill="#323232" d="M 250.5,196.5 C 241.804,203.248 231.804,207.415 220.5,209C 216.534,209.828 212.534,210.328 208.5,210.5C 176.5,210.5 144.5,210.5 112.5,210.5C 144.997,209.668 177.664,209.168 210.5,209C 224.709,207.541 238.043,203.374 250.5,196.5 Z"/></g>
<g><path style="opacity:0.173" fill="#3a3a3a" d="M 247.5,209.5 C 245.574,211.293 243.241,212.293 240.5,212.5C 242.176,210.166 244.509,209.166 247.5,209.5 Z"/></g>
<g><path style="opacity:0.153" fill="#3e3e3e" d="M 240.5,212.5 C 232.437,216.684 223.771,219.018 214.5,219.5C 214.5,219.167 214.5,218.833 214.5,218.5C 223.217,216.714 231.884,214.714 240.5,212.5 Z"/></g>
<g><path style="opacity:0.897" fill="#b2b2b2" d="M 94.5,141.5 C 95.3321,165.997 95.8321,190.663 96,215.5C 96.8333,216.333 97.6667,217.167 98.5,218C 137.165,218.5 175.832,218.667 214.5,218.5C 214.5,218.833 214.5,219.167 214.5,219.5C 175.5,220.833 136.5,220.833 97.5,219.5C 96.8783,218.373 96.045,217.373 95,216.5C 94.5,191.502 94.3334,166.502 94.5,141.5 Z"/></g>
</svg>
